<svg width="50" height="46" viewBox="0 0 50 46" fill="none" xmlns="http://www.w3.org/2000/svg">
<path d="M35.8232 29.4176C36.0527 29.1332 36.3537 28.905 36.4028 28.6162C36.446 28.3629 36.5086 28.2769 36.6352 28.0829" stroke="#BE6F7F" stroke-width="2"/>
<path d="M14.9425 8.78385L14.7295 6.84921" stroke="#B18A97" stroke-width="2"/>
<path d="M35.8124 29.5343C36.042 29.2485 36.3431 29.0192 36.3923 28.7288C36.4356 28.4742 36.4982 28.3879 36.6249 28.1928C37.1219 28.6048 37.6606 28.8807 38.241 29.0207C38.6182 29.113 38.8687 29.0073 39.2012 28.7809C40.6066 27.83 42.011 26.8782 43.4144 25.9253C43.5744 25.8171 43.6599 25.6895 43.6708 25.5426C43.6726 25.5151 43.6675 25.4876 43.6561 25.4624C43.6447 25.4372 43.6272 25.4152 43.6052 25.3982C43.4422 25.2751 43.2792 25.162 43.1162 25.0587C40.5777 23.4498 38.0398 21.8403 35.5023 20.2303C35.0888 19.9673 34.8831 19.5871 34.8851 19.0898C34.893 17.4381 34.9054 15.7875 34.9223 14.1378C34.9283 13.6048 34.575 13.2966 34.1098 13.0047C30.5476 10.7704 26.9844 8.5376 23.4202 6.30626C23.0654 6.08441 22.5764 6.36432 22.2111 6.48343C21.3951 6.74845 20.677 6.75689 20.0568 6.50875C19.4068 6.25117 19.0311 6.0591 18.478 6.42685C17.323 7.19413 16.1368 7.98373 14.9192 8.79567L14.7061 6.85119C15.5837 6.27648 16.4842 5.69135 17.4075 5.09579C17.6833 4.91862 17.7638 4.7072 17.6908 4.36922C16.7366 -0.0304287 22.2395 -1.70394 24.2193 2.16418C24.5175 2.74584 24.5617 3.40045 24.352 4.12802C24.2372 4.53299 24.519 4.80695 24.8619 5.0288C28.3675 7.30778 31.8745 9.58378 35.383 11.8568C35.7378 12.0861 36.0047 12.0146 36.3789 11.8121C37.5587 11.1759 38.7559 10.5272 39.9704 9.86618C40.0285 9.8345 40.0771 9.78821 40.1114 9.732C40.1457 9.67579 40.1644 9.61165 40.1658 9.54607C40.1971 8.42047 40.5921 7.15492 41.6119 6.62935C45.7208 4.51364 47.4994 10.5526 44.3924 11.7362C43.2638 12.165 41.7848 11.8181 40.6727 11.3044C40.5753 11.2598 40.447 11.2856 40.288 11.3819C39.1927 12.0469 38.1024 12.7199 37.017 13.4008C36.5549 13.6911 36.6354 13.8891 36.6339 14.4624C36.6299 15.844 36.6304 17.2252 36.6354 18.6059C36.6369 19.0273 37.0603 19.261 37.5045 19.5246C39.4626 20.6869 41.4211 21.8477 43.3801 23.0071C43.9228 23.3287 44.2582 23.2855 44.7129 22.8701C46.0666 21.6284 48.0644 21.7698 49.2512 23.1024C50.18 24.1446 50.1874 26.0161 49.1796 27.097C48.0227 28.3402 46.1188 28.2405 44.7532 27.4261C44.7008 27.3943 44.6405 27.3779 44.5791 27.3787C44.5177 27.3795 44.4577 27.3975 44.4058 27.4305L38.7912 30.9934C38.7119 31.044 38.6201 31.0715 38.5261 31.0728C38.4321 31.0741 38.3396 31.0492 38.2589 31.0009L35.8124 29.5343ZM22.586 3.32036C22.613 2.92522 22.4671 2.53457 22.1805 2.23435C21.8938 1.93412 21.4899 1.74892 21.0575 1.71948C20.8434 1.70491 20.6288 1.72902 20.4259 1.79042C20.223 1.85183 20.0358 1.94934 19.875 2.07739C19.7142 2.20543 19.5829 2.3615 19.4886 2.53669C19.3943 2.71187 19.339 2.90274 19.3256 3.0984C19.2986 3.49354 19.4445 3.88419 19.7312 4.18442C20.0178 4.48464 20.4217 4.66984 20.8541 4.69928C21.0682 4.71385 21.2828 4.68974 21.4857 4.62834C21.6886 4.56693 21.8758 4.46942 22.0366 4.34137C22.1975 4.21333 22.3287 4.05726 22.423 3.88207C22.5173 3.70689 22.5727 3.51602 22.586 3.32036Z" fill="#A0A0A0"/>
<path d="M14.8335 6.8416L15.0466 8.77937C13.5527 9.75963 12.3204 10.5534 11.35 11.1608C11.0624 11.3403 10.9432 11.5095 10.9417 11.8685C10.9179 18.301 10.8985 24.7336 10.8836 31.1661C10.8836 31.4322 10.9958 31.6364 11.2203 31.7789C15.1122 34.2369 19.0457 36.6258 23.021 38.9453C23.3747 39.1521 23.7571 39.2737 24.1683 39.3103C24.6049 39.3504 25.1175 39.3207 25.5019 39.4379C26.2618 39.6694 26.8175 40.16 27.1692 40.9098C27.8888 42.4395 27.6787 44.1948 26.3348 45.3091C24.9476 46.4605 22.9912 46.1014 21.8872 44.7601C20.8869 43.5444 20.788 42.1507 21.5906 40.5789C21.6751 40.4147 21.6383 40.2837 21.4804 40.1857C17.9004 37.972 14.3056 35.7513 10.6959 33.5237C10.1341 33.1766 9.76758 33.2952 9.20735 33.6395C8.18919 34.2646 7.17501 34.8947 6.16479 35.5298C5.7923 35.7642 5.87872 36.5624 5.84892 36.9512C5.73121 38.4498 4.59286 39.159 3.21462 39.4142C-0.942449 40.1813 -0.756202 31.7611 4.90724 34.0994C5.00459 34.14 5.13373 34.1237 5.29465 34.0505C6.35254 33.5737 7.34239 32.9861 8.26419 32.2878C9.06581 31.6809 9.22821 31.0592 9.22523 30.0147C9.20337 23.9175 9.2153 17.7995 9.26099 11.6608C9.2614 11.5881 9.24409 11.5165 9.21058 11.4524C9.17707 11.3882 9.12838 11.3334 9.06878 11.2928L5.54794 8.89362C5.49241 8.85559 5.42707 8.83426 5.35971 8.83215C5.29235 8.83005 5.22581 8.84726 5.16799 8.88175C4.74036 9.13844 4.3187 9.47228 3.84786 9.60285C2.52326 9.96933 0.985592 9.55834 0.304667 8.30903C0.0791821 7.89457 -0.0211376 7.47021 0.00369558 7.03597C0.0990548 5.42166 0.889241 4.433 2.37426 4.06997C3.62287 3.76531 4.60626 4.09519 5.32444 5.05963C5.74164 5.61751 5.86382 6.34307 6.0009 7.04785C6.03666 7.2348 6.14046 7.38713 6.3123 7.50484C7.33841 8.21011 8.37395 8.90153 9.41893 9.57911C9.79143 9.82145 10.1535 9.82838 10.5051 9.59988C11.9206 8.68392 13.3634 7.76449 14.8335 6.8416ZM25.8863 42.6013C25.8863 42.1975 25.7252 41.8103 25.4385 41.5248C25.1518 41.2393 24.763 41.079 24.3576 41.079C23.9521 41.079 23.5633 41.2393 23.2766 41.5248C22.9899 41.8103 22.8288 42.1975 22.8288 42.6013C22.8288 43.005 22.9899 43.3922 23.2766 43.6777C23.5633 43.9632 23.9521 44.1236 24.3576 44.1236C24.763 44.1236 25.1518 43.9632 25.4385 43.6777C25.7252 43.3922 25.8863 43.005 25.8863 42.6013Z" fill="black"/>
<path d="M36.7682 28.0696C36.6413 28.2639 36.5786 28.3499 36.5353 28.6034C36.486 28.8925 36.1844 29.1208 35.9545 29.4055C33.09 27.6747 30.9143 26.3472 29.4273 25.423C29.0411 25.1828 28.849 24.8221 28.851 24.3407C28.8679 21.5009 28.8779 18.6946 28.8809 15.922C28.8809 15.8227 28.856 15.7249 28.8083 15.6374C28.7606 15.5499 28.6916 15.4755 28.6076 15.4209C26.843 14.2743 25.0853 13.1376 23.3345 12.0107C22.9623 11.7715 22.5681 11.7804 22.1521 12.0374C19.9127 13.4212 18.4978 14.3005 17.9076 14.6751C17.2836 15.071 17.197 15.6018 17.197 16.3594C17.196 20.2065 17.1885 24.053 17.1746 27.8991C17.1736 28.2372 17.2945 28.4803 17.5374 28.6286C21.2688 30.9149 24.9559 33.2684 28.5987 35.6891C29.7483 36.4527 30.9471 36.9257 32.2146 37.4461C36.2516 39.1052 32.5132 45.0478 28.9301 42.1862C28.3071 41.689 27.9647 41.1276 27.903 40.5019C27.8059 39.5115 28.2269 38.8962 28.8704 38.2067C28.892 38.1834 28.9082 38.1557 28.9178 38.1256C28.9274 38.0954 28.9303 38.0635 28.9262 38.0321C28.922 38.0007 28.911 37.9706 28.8939 37.9439C28.8768 37.9172 28.854 37.8946 28.8271 37.8776L15.5726 29.4722C15.4948 29.4228 15.4309 29.3547 15.3868 29.2743C15.3427 29.194 15.3198 29.1039 15.3203 29.0126C15.3362 24.2522 15.3517 19.4577 15.3666 14.6291C15.3681 14.254 15.6443 14.082 15.9966 13.824C18.1375 12.2573 20.4566 11.0114 22.9538 10.0862C23.1011 10.0318 23.2415 10.0442 23.3748 10.1233C25.7865 11.5615 28.1538 12.9863 30.4768 14.3978C30.5648 14.4512 30.6376 14.5263 30.688 14.6159C30.7385 14.7054 30.765 14.8065 30.765 14.9094C30.76 17.9083 30.758 20.8544 30.759 23.7476C30.76 24.0698 30.9257 24.3348 31.2562 24.5423C33.1035 25.7048 34.9408 26.8805 36.7682 28.0696Z" fill="#6C6B6B"/>
<path d="M22.5211 19.4967C24.1287 19.4967 25.4319 18.2692 25.4319 16.755C25.4319 15.2407 24.1287 14.0132 22.5211 14.0132C20.9136 14.0132 19.6104 15.2407 19.6104 16.755C19.6104 18.2692 20.9136 19.4967 22.5211 19.4967Z" fill="#2C7579"/>
</svg>
