<svg width="160" height="160" viewBox="0 0 156 144" fill="none" xmlns="http://www.w3.org/2000/svg">
<path d="M109.025 89.5318C109.724 88.6661 110.64 87.9718 110.789 87.0927C110.921 86.3218 111.111 86.0603 111.497 85.4697" stroke="#BE6F7F" stroke-width="2"/>
<path d="M45.4785 26.7335L44.8301 20.8455" stroke="#B18A97" stroke-width="2"/>
<path d="M108.997 89.8871C109.696 89.017 110.613 88.3192 110.762 87.4356C110.894 86.6607 111.085 86.3979 111.47 85.8043C112.983 87.058 114.622 87.8978 116.389 88.3238C117.537 88.6047 118.299 88.283 119.311 87.5942C123.588 84.7001 127.863 81.8031 132.134 78.903C132.621 78.5737 132.881 78.1855 132.914 77.7384C132.92 77.6548 132.904 77.571 132.87 77.4943C132.835 77.4177 132.782 77.3506 132.715 77.2989C132.219 76.9243 131.722 76.5799 131.226 76.2657C123.501 71.3688 115.776 66.4704 108.054 61.5705C106.795 60.7699 106.169 59.6129 106.175 58.0994C106.199 53.0726 106.237 48.0488 106.289 43.028C106.307 41.4058 105.231 40.4678 103.816 39.5797C92.9742 32.7796 82.1297 25.984 71.2821 19.193C70.2022 18.5178 68.7139 19.3697 67.6023 19.7322C65.1188 20.5388 62.9332 20.5645 61.0457 19.8092C59.0673 19.0253 57.9239 18.4407 56.2405 19.56C52.7255 21.8952 49.1152 24.2983 45.4096 26.7694L44.7607 20.8514C47.4318 19.1023 50.1724 17.3215 52.9826 15.5089C53.822 14.9697 54.0671 14.3263 53.8447 13.2976C50.9408 -0.092609 67.6885 -5.1859 73.7142 6.58664C74.6217 8.3569 74.7563 10.3492 74.118 12.5635C73.7687 13.7961 74.6262 14.6299 75.6698 15.305C86.3389 22.2411 97.0125 29.168 107.691 36.086C108.771 36.7838 109.583 36.5663 110.722 35.95C114.312 34.0136 117.956 32.0394 121.652 30.0275C121.829 29.9311 121.977 29.7902 122.081 29.6191C122.186 29.4481 122.243 29.2528 122.247 29.0533C122.342 25.6275 123.544 21.7758 126.648 20.1763C139.153 13.7372 144.566 32.1165 135.11 35.7189C131.676 37.024 127.174 35.9681 123.79 34.4048C123.493 34.2689 123.103 34.3474 122.619 34.6404C119.285 36.6645 115.967 38.7126 112.664 40.785C111.257 41.6686 111.502 42.2713 111.498 44.0159C111.485 48.221 111.487 52.4246 111.502 56.6267C111.507 57.9091 112.795 58.6205 114.147 59.4226C120.107 62.9601 126.067 66.4931 132.03 70.0215C133.681 71.0003 134.702 70.8689 136.086 69.6046C140.206 65.8254 146.286 66.2559 149.898 70.3115C152.725 73.4835 152.748 79.1794 149.68 82.4692C146.159 86.2529 140.365 85.9493 136.209 83.4706C136.049 83.3741 135.865 83.3242 135.679 83.3266C135.492 83.329 135.309 83.3836 135.151 83.4843L118.063 94.3279C117.822 94.4817 117.543 94.5654 117.257 94.5694C116.97 94.5734 116.689 94.4976 116.443 94.3505L108.997 89.8871ZM68.7433 10.1054C68.8253 8.90284 68.3814 7.7139 67.5089 6.80018C66.6365 5.88646 65.4072 5.3228 64.0913 5.23321C63.4397 5.18885 62.7865 5.26222 62.169 5.44912C61.5515 5.63602 60.9818 5.93278 60.4923 6.32248C60.0028 6.71218 59.6032 7.18718 59.3163 7.72036C59.0294 8.25353 58.8609 8.83444 58.8202 9.42991C58.7381 10.6325 59.1821 11.8215 60.0545 12.7352C60.9269 13.6489 62.1563 14.2126 63.4722 14.3021C64.1237 14.3465 64.7769 14.2731 65.3944 14.0862C66.012 13.8993 66.5817 13.6026 67.0712 13.2129C67.5607 12.8232 67.9602 12.3482 68.2471 11.815C68.534 11.2818 68.7026 10.7009 68.7433 10.1054Z" fill="#A0A0A0"/>
<path d="M45.1456 20.8223L45.794 26.7198C41.2472 29.7032 37.497 32.1191 34.5433 33.9676C33.6681 34.514 33.3054 35.0288 33.3008 36.1216C33.2283 55.6988 33.1693 75.276 33.124 94.8533C33.124 95.6631 33.4656 96.2848 34.1488 96.7183C45.9936 104.199 57.9653 111.47 70.064 118.529C71.1403 119.158 72.3042 119.529 73.5558 119.64C74.8845 119.762 76.4444 119.672 77.6144 120.029C79.9271 120.733 81.6186 122.226 82.6888 124.508C84.879 129.164 84.2396 134.506 80.1493 137.897C75.9274 141.402 69.9733 140.309 66.6131 136.226C63.5687 132.527 63.2679 128.285 65.7107 123.501C65.9676 123.001 65.8558 122.602 65.3751 122.304C54.4796 115.567 43.5388 108.808 32.5526 102.029C30.843 100.972 29.7274 101.333 28.0224 102.381C24.9236 104.284 21.837 106.201 18.7624 108.134C17.6287 108.848 17.8917 111.277 17.8011 112.46C17.4428 117.021 13.9783 119.18 9.78362 119.956C-2.86832 122.291 -2.30148 96.6641 14.9351 103.781C15.2314 103.904 15.6244 103.855 16.1141 103.632C19.3338 102.181 22.3464 100.393 25.1519 98.2672C27.5916 96.4202 28.0858 94.5281 28.0768 91.3491C28.0103 72.7924 28.0466 54.1725 28.1856 35.4894C28.1869 35.2681 28.1342 35.0503 28.0322 34.855C27.9302 34.6598 27.782 34.4931 27.6006 34.3695L16.885 27.0675C16.716 26.9518 16.5172 26.8869 16.3122 26.8805C16.1072 26.8741 15.9046 26.9264 15.7287 27.0314C14.4272 27.8126 13.1439 28.8287 11.7109 29.2261C7.6795 30.3414 2.99963 29.0906 0.927248 25.2883C0.240989 24.0269 -0.0643317 22.7354 0.0112474 21.4138C0.301471 16.5007 2.70639 13.4917 7.22602 12.3869C11.0261 11.4596 14.0191 12.4636 16.2048 15.3989C17.4745 17.0968 17.8464 19.305 18.2636 21.45C18.3724 22.0189 18.6883 22.4826 19.2114 22.8408C22.3343 24.9873 25.4859 27.0916 28.6663 29.1538C29.8 29.8914 30.9019 29.9124 31.9721 29.217C36.2801 26.4293 40.6713 23.6311 45.1456 20.8223ZM78.7843 129.656C78.7843 128.427 78.2941 127.249 77.4216 126.38C76.5491 125.511 75.3657 125.023 74.1317 125.023C72.8977 125.023 71.7143 125.511 70.8418 126.38C69.9692 127.249 69.479 128.427 69.479 129.656C69.479 130.885 69.9692 132.063 70.8418 132.932C71.7143 133.801 72.8977 134.289 74.1317 134.289C75.3657 134.289 76.5491 133.801 77.4216 132.932C78.2941 132.063 78.7843 130.885 78.7843 129.656Z" fill="black"/>
<path d="M111.902 85.4294C111.516 86.0205 111.325 86.2822 111.193 87.0539C111.043 87.9338 110.125 88.6287 109.426 89.4951C100.708 84.2275 94.0859 80.1873 89.5603 77.3745C88.3849 76.6435 87.8003 75.5455 87.8063 74.0804C87.8578 65.4374 87.8881 56.8968 87.8972 48.4584C87.8974 48.1562 87.8215 47.8585 87.6763 47.5922C87.5312 47.3259 87.3213 47.0994 87.0657 46.9332C81.6949 43.4435 76.3454 39.9839 71.0171 36.5544C69.8842 35.8264 68.6846 35.8534 67.4184 36.6356C60.6027 40.8473 56.2967 43.5232 54.5004 44.6634C52.6011 45.8682 52.3375 47.4837 52.3375 49.7896C52.3345 61.498 52.3118 73.205 52.2694 84.9104C52.2664 85.9393 52.6344 86.6793 53.3735 87.1306C64.73 94.0888 75.9516 101.252 87.0384 108.619C90.5372 110.943 94.1858 112.383 98.0435 113.966C110.33 119.016 98.9523 137.102 88.0472 128.393C86.1509 126.88 85.1089 125.171 84.921 123.267C84.6257 120.252 85.907 118.38 87.8654 116.281C87.9311 116.21 87.9803 116.126 88.0096 116.034C88.0389 115.943 88.0476 115.845 88.0351 115.75C88.0225 115.654 87.989 115.563 87.9369 115.482C87.8848 115.4 87.8155 115.331 87.7337 115.28L47.3939 89.6982C47.1572 89.5476 46.9626 89.3404 46.8283 89.0958C46.6941 88.8512 46.6245 88.5772 46.626 88.2993C46.6745 73.8112 46.7214 59.2192 46.7669 44.5235C46.7714 43.3818 47.612 42.8584 48.6843 42.0732C55.2001 37.305 62.2581 33.5129 69.8584 30.6971C70.3067 30.5317 70.7338 30.5693 71.1397 30.8099C78.4795 35.1871 85.6844 39.5236 92.7545 43.8195C93.0224 43.982 93.2437 44.2105 93.3973 44.4831C93.5508 44.7557 93.6315 45.0633 93.6315 45.3763C93.6163 54.5036 93.6103 63.47 93.6133 72.2754C93.6163 73.2561 94.1207 74.0623 95.1264 74.6941C100.749 78.2319 106.34 81.8103 111.902 85.4294Z" fill="#6C6B6B"/>
<path d="M68.5396 59.3377C73.4322 59.3377 77.3985 55.6018 77.3985 50.9934C77.3985 46.3849 73.4322 42.649 68.5396 42.649C63.6469 42.649 59.6807 46.3849 59.6807 50.9934C59.6807 55.6018 63.6469 59.3377 68.5396 59.3377Z" fill="#2C7579"/>
</svg>
