<?xml version="1.0" encoding="UTF-8" standalone="no"?>
<svg xmlns="http://www.w3.org/2000/svg" version="1.2" baseProfile="tiny" viewBox="0.00 0.00 1600.00 421.00">
<path fill="#0033a0" d="
  M 0.00 204.37
  L 0.00 194.24
  Q 2.83 120.24 51.48 66.24
  C 86.36 27.51 136.17 4.02 188.51 1.15
  C 324.94 -6.34 429.01 121.73 391.69 253.71
  C 370.06 330.20 303.47 386.12 225.08 396.13
  Q 224.60 396.19 224.60 395.71
  L 224.60 368.77
  Q 224.60 368.03 225.32 367.94
  C 259.29 363.39 290.39 350.74 311.82 322.94
  Q 312.33 322.28 311.50 322.28
  L 87.76 322.28
  Q 87.22 322.28 87.51 322.73
  Q 88.87 324.85 89.89 326.08
  C 108.96 348.82 134.46 360.75 163.28 366.09
  Q 168.74 367.10 174.22 368.14
  Q 174.72 368.23 174.72 368.75
  L 174.72 395.98
  A 0.28 0.28 0.0 0 1 174.40 396.26
  C 76.94 383.24 3.12 303.59 0.00 204.37
  Z
  M 198.65 10.19
  C 200.19 35.56 183.07 52.52 166.53 68.67
  Q 128.30 106.00 90.30 143.55
  C 68.99 164.59 57.45 191.72 69.34 221.15
  Q 75.39 236.11 88.73 249.30
  Q 89.13 249.69 88.99 249.15
  Q 87.82 244.44 86.69 239.76
  Q 79.85 211.34 94.51 186.44
  Q 101.74 174.16 109.42 166.67
  Q 156.67 120.54 203.47 73.96
  C 213.15 64.32 220.48 50.31 217.95 37.00
  C 215.87 26.09 207.85 16.48 199.13 9.93
  Q 198.61 9.54 198.65 10.19
  Z
  M 253.99 23.62
  C 252.14 43.89 236.80 61.55 222.67 75.42
  C 192.41 105.10 162.37 135.11 131.66 164.33
  C 106.12 188.63 87.13 224.72 112.74 256.71
  Q 113.01 257.04 113.00 256.62
  C 112.59 228.95 135.21 201.69 154.78 184.02
  Q 171.24 169.16 202.35 138.35
  Q 227.15 113.77 251.66 88.91
  C 270.97 69.32 274.59 44.61 254.69 23.38
  A 0.41 0.40 26.0 0 0 253.99 23.62
  Z
  M 264.86 139.62
  C 284.38 120.40 291.46 97.73 280.03 71.78
  Q 279.85 71.38 279.73 71.81
  Q 277.85 78.55 274.49 83.49
  Q 263.98 98.97 249.19 113.44
  Q 204.72 156.97 160.14 200.39
  Q 146.99 213.20 138.62 229.52
  C 124.46 257.13 123.98 291.94 150.35 312.55
  Q 151.03 313.07 150.76 312.26
  C 139.72 278.88 160.28 242.12 183.46 219.46
  Q 224.24 179.61 264.86 139.62
  Z
  M 325.22 91.77
  C 323.05 98.63 318.09 105.32 313.60 110.85
  Q 302.15 124.96 289.10 137.60
  Q 247.26 178.13 205.65 218.90
  Q 198.86 225.56 192.18 233.92
  C 171.46 259.88 173.37 288.09 194.88 312.39
  Q 195.27 312.83 195.18 312.25
  C 190.54 280.43 216.71 249.14 238.02 228.94
  C 257.24 210.70 276.08 192.06 295.19 173.70
  Q 307.71 161.67 317.45 150.99
  C 333.34 133.54 334.19 113.36 325.66 91.76
  A 0.23 0.23 0.0 0 0 325.22 91.77
  Z
  M 315.17 216.16
  C 326.87 201.02 329.17 183.16 324.83 164.40
  Q 324.66 163.67 324.31 164.34
  C 320.44 171.67 315.42 177.14 307.81 184.31
  Q 280.60 209.97 253.73 235.99
  C 234.15 254.95 220.27 288.40 239.66 312.66
  A 0.30 0.30 0.0 0 0 240.19 312.51
  C 243.05 291.84 260.58 270.64 275.07 256.56
  Q 289.78 242.28 304.43 227.93
  Q 311.18 221.33 315.17 216.16
  Z"
/>
<path fill="#0033a0" d="
  M 969.36 62.50
  C 969.39 51.81 967.10 48.97 956.26 48.46
  A 0.47 0.46 1.9 0 1 955.81 47.99
  L 955.82 43.24
  Q 955.82 42.79 956.26 42.74
  Q 974.15 40.51 991.52 35.68
  Q 992.07 35.53 992.07 36.10
  Q 992.08 97.80 991.89 159.50
  Q 991.87 165.64 993.00 169.76
  C 994.30 174.52 1001.30 175.40 1006.03 175.57
  A 0.48 0.47 90.0 0 1 1006.49 176.04
  L 1006.49 181.31
  Q 1006.50 181.86 1005.94 181.86
  L 955.16 181.86
  Q 955.00 181.86 955.00 181.70
  L 955.00 175.83
  Q 955.00 175.61 955.23 175.59
  C 964.43 174.81 969.01 173.35 969.05 163.00
  Q 969.23 112.75 969.36 62.50
  Z"
/>
<path fill="#0033a0" d="
  M 1054.56 77.50
  Q 1054.33 77.40 1054.41 77.16
  L 1065.76 44.24
  A 1.23 1.22 -86.1 0 1 1066.67 43.44
  Q 1076.02 41.45 1085.57 41.39
  A 1.82 1.82 0.0 0 1 1087.04 44.30
  L 1060.82 79.60
  Q 1060.48 80.06 1059.95 79.83
  L 1054.56 77.50
  Z"
/>
<path fill="#0033a0" d="
  M 530.80 54.25
  Q 530.70 105.00 530.71 155.75
  C 530.71 165.09 530.89 172.54 542.28 174.08
  Q 549.33 175.03 551.15 175.10
  Q 551.41 175.11 551.41 175.37
  L 551.42 181.54
  Q 551.43 181.86 551.10 181.86
  L 487.31 181.86
  Q 487.00 181.86 487.00 181.55
  L 487.01 175.27
  Q 487.01 175.02 487.26 175.01
  Q 494.80 174.94 500.52 172.88
  C 506.26 170.82 506.78 163.09 506.79 157.87
  Q 506.85 106.05 506.81 54.05
  Q 506.81 53.70 506.45 53.69
  Q 496.62 53.45 486.75 54.00
  C 479.60 54.39 474.29 56.75 471.28 63.52
  Q 467.72 71.49 466.04 79.74
  A 0.31 0.30 5.8 0 1 465.74 79.98
  L 459.11 79.98
  Q 458.93 79.98 458.94 79.80
  L 461.21 44.69
  A 0.36 0.35 -88.3 0 1 461.56 44.35
  L 575.95 44.35
  Q 576.32 44.35 576.34 44.71
  L 578.32 79.07
  Q 578.33 79.35 578.06 79.36
  L 571.97 79.73
  Q 571.65 79.75 571.58 79.44
  Q 568.17 64.75 564.36 59.90
  C 559.98 54.33 553.88 54.06 546.13 53.76
  Q 538.74 53.46 531.32 53.71
  Q 530.80 53.73 530.80 54.25
  Z"
/>
<circle fill="#0033a0" cx="1243.25" cy="60.05" r="13.14"/>
<path fill="#0033a0" d="
  M 776.05 103.01
  A 0.29 0.29 0.0 0 0 776.51 103.25
  C 787.66 95.12 798.92 85.07 814.00 89.25
  C 827.32 92.94 833.13 106.15 833.18 119.00
  Q 833.28 141.37 833.28 163.75
  C 833.28 173.10 836.51 174.77 845.15 175.56
  Q 845.75 175.61 845.75 176.21
  L 845.74 181.31
  Q 845.74 181.86 845.19 181.86
  L 799.36 181.86
  A 0.34 0.34 0.0 0 1 799.02 181.52
  L 799.02 175.98
  Q 799.02 175.67 799.33 175.63
  C 807.49 174.71 809.95 172.61 810.06 165.25
  Q 810.35 144.13 810.32 123.00
  C 810.30 114.54 807.55 105.23 797.98 103.38
  C 789.62 101.76 782.69 105.60 776.40 110.53
  A 0.85 0.83 71.7 0 0 776.07 111.20
  Q 776.05 135.93 776.02 160.75
  C 776.01 170.24 776.08 174.47 786.85 175.60
  A 0.31 0.30 3.2 0 1 787.13 175.90
  L 787.13 181.64
  A 0.22 0.22 0.0 0 1 786.91 181.86
  L 738.96 181.86
  Q 738.78 181.86 738.78 181.68
  L 738.77 175.97
  Q 738.77 175.62 739.11 175.59
  C 748.69 174.78 753.28 173.67 753.26 162.50
  Q 753.23 139.75 753.24 117.00
  C 753.25 106.70 753.03 103.38 742.00 101.34
  Q 741.50 101.25 741.50 100.74
  L 741.49 96.27
  Q 741.49 95.81 741.95 95.74
  Q 759.16 93.16 775.73 87.86
  Q 776.07 87.75 776.07 88.10
  L 776.05 103.01
  Z"
/>
<path fill="#0033a0" d="
  M 1233.16 116.25
  C 1233.17 105.76 1232.26 103.04 1221.49 101.52
  Q 1221.01 101.45 1221.01 100.97
  L 1221.02 96.21
  Q 1221.02 95.59 1221.63 95.52
  Q 1238.88 93.39 1255.44 88.14
  Q 1256.02 87.96 1256.02 88.57
  Q 1256.06 124.07 1255.88 159.49
  C 1255.82 171.36 1257.72 174.74 1269.66 175.59
  A 0.37 0.37 0.0 0 1 1270.00 175.96
  L 1270.00 181.55
  Q 1270.00 181.86 1269.69 181.86
  L 1219.93 181.86
  Q 1219.37 181.86 1219.37 181.31
  L 1219.37 176.05
  A 0.46 0.45 88.7 0 1 1219.80 175.59
  C 1231.01 175.00 1233.32 171.71 1233.26 160.50
  Q 1233.14 138.37 1233.16 116.25
  Z"
/>
<path fill="#0033a0" d="
  M 586.69 131.80
  C 586.65 152.20 599.81 171.12 622.50 166.47
  Q 631.34 164.66 638.60 157.97
  Q 639.05 157.55 639.41 158.05
  L 642.31 162.13
  Q 642.54 162.45 642.32 162.77
  C 613.99 203.98 557.78 181.62 564.92 131.79
  C 567.34 114.90 577.69 100.94 592.77 92.83
  C 615.61 80.55 642.15 94.56 643.51 120.49
  C 643.86 127.05 639.65 127.87 634.01 128.32
  Q 610.61 130.19 587.18 131.29
  Q 586.69 131.31 586.69 131.80
  Z
  M 620.32 112.17
  C 618.97 102.93 610.90 91.76 600.08 97.92
  C 592.09 102.47 588.44 113.09 587.77 121.70
  Q 587.75 122.01 588.05 122.01
  Q 603.02 121.92 617.99 121.00
  C 621.98 120.76 620.69 114.74 620.32 112.17
  Z"
/>
<path fill="#0033a0" d="
  M 716.73 107.27
  C 702.84 95.49 684.88 94.57 679.01 115.11
  C 674.02 132.56 677.10 154.39 694.65 163.79
  C 707.00 170.40 718.91 166.91 729.62 157.94
  Q 729.99 157.62 730.30 158.01
  L 733.39 161.92
  Q 733.74 162.35 733.41 162.80
  C 724.57 174.74 711.25 184.78 695.60 184.23
  C 669.61 183.32 651.94 161.21 654.42 135.74
  C 656.75 111.72 677.54 94.25 700.26 89.20
  Q 710.26 86.98 719.70 89.80
  C 728.95 92.55 735.52 98.95 727.41 108.41
  C 723.50 112.97 720.54 110.50 716.73 107.27
  Z"
/>
<path fill="#0033a0" d="
  M 943.83 158.82
  C 929.87 188.15 886.45 193.35 865.26 168.70
  C 851.37 152.55 850.54 127.76 862.16 109.89
  C 875.55 89.30 903.79 82.35 925.17 93.58
  C 948.84 106.00 954.73 135.93 943.83 158.82
  Z
  M 885.59 105.37
  C 878.14 118.79 879.25 138.90 882.92 153.54
  C 885.67 164.50 893.85 179.29 907.44 176.41
  C 920.95 173.56 922.44 156.15 922.97 145.30
  C 923.59 132.54 922.49 117.80 916.16 106.35
  C 909.09 93.59 893.22 91.60 885.59 105.37
  Z"
/>
<path fill="#0033a0" d="
  M 1073.09 89.29
  C 1101.78 95.75 1114.66 123.79 1106.60 151.21
  Q 1100.95 170.44 1083.51 179.25
  C 1066.62 187.78 1043.71 185.55 1029.44 172.98
  C 1015.59 160.80 1011.25 142.13 1015.70 124.53
  C 1022.07 99.33 1047.84 83.62 1073.09 89.29
  Z
  M 1065.51 97.00
  C 1056.43 93.47 1048.70 98.46 1044.87 106.79
  C 1038.68 120.28 1039.21 135.49 1042.00 149.99
  C 1043.93 160.00 1049.89 174.34 1061.06 176.42
  C 1073.63 178.75 1079.69 168.36 1081.52 157.75
  C 1084.34 141.42 1085.14 104.63 1065.51 97.00
  Z"
/>
<path fill="#0033a0" d="
  M 1140.67 184.46
  C 1131.16 181.54 1124.59 174.55 1122.86 164.41
  Q 1122.67 163.31 1123.72 162.91
  Q 1134.77 158.75 1142.99 150.29
  A 0.33 0.32 -58.1 0 0 1142.87 149.76
  C 1122.11 141.79 1117.26 115.65 1132.52 100.09
  C 1145.58 86.78 1166.64 85.22 1183.27 92.98
  Q 1185.01 93.79 1186.77 93.67
  Q 1200.16 92.70 1213.19 90.90
  A 1.42 1.41 -81.8 0 1 1214.67 92.89
  Q 1212.16 98.44 1207.58 103.07
  Q 1206.57 104.09 1205.51 104.06
  Q 1199.90 103.89 1194.47 103.57
  A 0.24 0.24 0.0 0 0 1194.26 103.96
  Q 1200.54 112.41 1199.58 123.01
  C 1197.70 143.87 1178.16 154.10 1159.24 152.95
  Q 1157.43 152.84 1151.41 152.11
  Q 1150.96 152.06 1150.59 152.33
  Q 1146.46 155.34 1146.56 159.24
  C 1146.69 164.72 1154.84 166.65 1159.25 166.59
  Q 1170.75 166.42 1182.25 166.50
  C 1199.59 166.63 1213.61 175.49 1211.09 194.75
  C 1209.29 208.45 1199.33 219.23 1187.58 225.60
  C 1169.97 235.15 1139.58 238.38 1124.80 221.48
  C 1118.48 214.26 1116.77 204.23 1124.65 197.40
  Q 1132.22 190.84 1140.78 185.26
  Q 1141.57 184.74 1140.67 184.46
  Z
  M 1174.53 105.47
  C 1171.84 98.63 1164.47 92.92 1156.92 96.52
  C 1142.57 103.36 1143.85 142.75 1161.64 145.59
  C 1170.49 147.00 1175.10 139.20 1176.66 131.50
  Q 1179.43 117.92 1174.53 105.47
  Z
  M 1187.44 215.48
  C 1196.69 206.68 1195.69 191.00 1181.99 187.23
  Q 1170.16 183.97 1154.50 186.09
  C 1142.86 187.67 1135.92 200.61 1142.41 211.06
  C 1150.76 224.51 1176.55 225.82 1187.44 215.48
  Z"
/>
<path fill="#0033a0" d="
  M 1336.40 104.38
  C 1322.32 94.22 1307.69 98.13 1302.59 114.93
  C 1297.75 130.84 1300.28 150.86 1314.59 161.34
  C 1327.32 170.68 1341.95 168.21 1353.07 157.98
  Q 1353.54 157.55 1353.94 158.05
  L 1356.94 161.85
  Q 1357.28 162.29 1356.96 162.75
  C 1347.95 175.24 1333.54 185.59 1317.50 184.20
  C 1289.76 181.78 1272.87 156.40 1279.04 129.75
  C 1283.99 108.38 1303.83 93.36 1324.45 89.11
  C 1333.03 87.33 1343.97 88.10 1351.15 93.61
  C 1359.67 100.14 1349.77 114.53 1343.84 109.94
  Q 1340.17 107.09 1336.40 104.38
  Z"
/>
<path fill="#0033a0" d="
  M 1406.50 184.10
  C 1384.96 182.47 1367.94 168.12 1364.22 146.74
  C 1361.24 129.62 1366.76 111.99 1379.74 100.44
  C 1395.26 86.62 1419.92 83.94 1437.56 95.41
  C 1451.31 104.34 1458.69 119.26 1458.47 135.75
  C 1458.08 165.24 1436.41 186.38 1406.50 184.10
  Z
  M 1400.52 98.78
  C 1387.05 109.87 1388.50 134.95 1391.44 150.04
  C 1393.39 160.03 1399.23 174.09 1410.24 176.36
  C 1426.66 179.75 1431.03 162.15 1431.95 150.25
  C 1433.12 135.12 1432.68 113.90 1422.69 102.33
  C 1417.32 96.11 1407.29 93.21 1400.52 98.78
  Z"
/>
<path fill="#0033a0" d="
  M 530.70 358.98
  Q 530.70 358.14 529.99 358.60
  Q 522.47 363.47 514.69 367.93
  C 501.22 375.65 481.92 365.44 473.22 353.96
  C 463.04 340.53 461.58 321.78 468.32 306.31
  C 477.02 286.34 498.54 274.81 519.63 274.55
  C 523.03 274.51 526.57 275.18 530.12 275.80
  Q 530.70 275.90 530.70 275.32
  Q 530.71 261.23 530.69 247.26
  C 530.68 241.86 529.97 237.26 523.66 236.15
  Q 518.47 235.25 516.15 235.16
  A 0.30 0.29 -89.0 0 1 515.87 234.86
  L 515.87 229.34
  Q 515.87 229.07 516.13 229.04
  Q 534.93 226.85 553.21 222.01
  Q 553.57 221.92 553.57 222.29
  Q 553.56 282.73 553.50 343.25
  C 553.50 348.36 553.43 354.75 559.49 355.69
  Q 563.75 356.35 568.07 356.72
  A 0.54 0.53 -88.3 0 1 568.56 357.25
  L 568.59 362.27
  Q 568.59 362.88 567.99 362.96
  Q 549.33 365.46 531.24 370.66
  Q 530.70 370.82 530.70 370.25
  L 530.70 358.98
  Z
  M 490.23 326.26
  C 492.08 346.08 509.56 365.12 530.28 351.38
  Q 530.70 351.11 530.70 350.61
  Q 530.70 323.24 530.70 295.83
  Q 530.70 293.60 529.63 291.96
  C 524.28 283.82 514.06 280.47 505.29 285.16
  C 491.40 292.58 488.95 312.53 490.23 326.26
  Z"
/>
<path fill="#0033a0" d="
  M 800.80 328.26
  L 843.87 233.98
  A 0.88 0.87 11.9 0 1 844.67 233.47
  L 883.47 233.47
  A 0.26 0.26 0.0 0 1 883.73 233.73
  L 883.74 239.79
  Q 883.74 240.11 883.41 240.13
  Q 878.60 240.39 873.50 241.46
  C 866.15 243.01 865.88 249.68 866.00 256.00
  Q 867.23 316.11 868.06 344.49
  C 868.47 358.36 873.21 360.89 885.98 361.51
  Q 886.23 361.52 886.23 361.77
  L 886.23 367.99
  Q 886.23 368.21 886.01 368.21
  L 827.23 368.21
  Q 827.00 368.21 827.00 367.98
  L 827.02 361.77
  A 0.26 0.26 0.0 0 1 827.27 361.51
  C 833.63 361.11 841.57 360.47 843.20 353.00
  Q 844.13 348.71 844.08 341.75
  Q 843.74 299.38 843.48 257.16
  A 0.43 0.43 0.0 0 0 842.85 256.78
  Q 842.44 256.99 842.21 257.51
  Q 818.50 311.93 794.84 366.36
  A 0.68 0.65 -77.3 0 1 794.24 366.76
  L 790.03 366.75
  Q 789.51 366.74 789.32 366.27
  Q 767.51 312.91 745.64 259.59
  Q 745.47 259.17 745.18 259.06
  A 0.39 0.39 0.0 0 0 744.65 259.40
  Q 743.06 291.24 741.57 323.00
  Q 741.03 334.37 741.42 345.75
  Q 741.60 350.80 742.79 354.22
  C 744.92 360.29 755.35 360.96 760.48 361.31
  A 0.26 0.26 0.0 0 1 760.72 361.57
  L 760.73 367.99
  Q 760.73 368.21 760.51 368.21
  L 711.31 368.21
  Q 711.08 368.21 711.08 367.98
  L 711.10 361.60
  Q 711.10 361.30 711.40 361.28
  C 716.51 361.02 722.83 359.79 726.10 355.21
  Q 727.80 352.84 728.79 346.93
  Q 730.56 336.46 731.39 325.87
  Q 733.92 293.70 736.20 261.50
  Q 736.62 255.44 735.75 250.02
  C 734.38 241.48 726.04 240.46 718.33 240.14
  Q 717.99 240.13 717.99 239.79
  L 718.00 233.74
  A 0.27 0.26 -90.0 0 1 718.26 233.47
  L 757.24 233.47
  A 0.88 0.87 -11.9 0 1 758.04 233.99
  L 800.28 328.26
  A 0.28 0.28 0.0 0 0 800.80 328.26
  Z"
/>
<path fill="#0033a0" d="
  M 1139.29 286.76
  Q 1139.13 313.89 1139.34 341.00
  C 1139.46 356.06 1149.70 360.02 1162.31 354.21
  A 0.25 0.25 0.0 0 1 1162.66 354.37
  L 1164.37 360.22
  Q 1164.46 360.51 1164.18 360.65
  Q 1156.70 364.30 1149.02 368.07
  Q 1139.76 372.63 1129.93 369.04
  C 1118.77 364.97 1116.11 354.19 1116.17 343.50
  Q 1116.33 315.17 1116.31 286.84
  Q 1116.31 286.27 1115.75 286.27
  L 1103.73 286.27
  A 1.82 1.82 0.0 0 1 1102.33 283.29
  L 1107.21 277.39
  Q 1107.53 276.99 1108.05 276.99
  L 1115.78 276.99
  Q 1116.31 276.99 1116.30 276.47
  L 1116.30 262.34
  Q 1116.30 261.86 1116.68 261.57
  L 1135.63 247.04
  A 2.25 2.25 0.0 0 1 1139.25 248.82
  L 1139.24 276.49
  Q 1139.24 276.99 1139.74 276.99
  L 1158.61 276.99
  Q 1162.49 276.99 1162.15 280.86
  L 1162.02 282.31
  Q 1161.67 286.27 1157.69 286.27
  L 1139.78 286.27
  Q 1139.29 286.27 1139.29 286.76
  Z"
/>
<path fill="#0033a0" d="
  M 1032.68 289.35
  C 1043.62 281.68 1054.20 271.76 1069.00 275.31
  C 1083.24 278.72 1089.13 292.47 1089.15 305.99
  Q 1089.18 328.62 1089.18 351.25
  C 1089.17 360.00 1093.77 361.16 1101.17 361.91
  A 0.57 0.56 2.8 0 1 1101.68 362.47
  L 1101.67 367.77
  Q 1101.67 368.21 1101.23 368.21
  L 1055.23 368.21
  A 0.24 0.23 0.0 0 1 1054.99 367.98
  L 1054.99 362.24
  Q 1054.99 361.93 1055.30 361.90
  C 1064.19 361.23 1066.06 358.19 1066.12 349.50
  Q 1066.27 330.00 1066.27 310.50
  C 1066.27 286.81 1048.21 283.88 1032.40 296.90
  Q 1032.03 297.21 1032.03 297.69
  Q 1031.97 321.85 1032.03 346.00
  C 1032.05 355.68 1031.28 360.82 1042.74 361.91
  A 0.34 0.33 -87.2 0 1 1043.04 362.25
  L 1043.04 367.96
  Q 1043.04 368.21 1042.79 368.21
  L 994.98 368.21
  Q 994.74 368.21 994.74 367.98
  L 994.73 362.24
  Q 994.73 361.93 995.05 361.90
  C 1005.42 361.12 1008.94 359.74 1009.02 348.68
  Q 1009.20 323.96 1009.03 299.25
  C 1008.97 290.46 1005.86 289.16 998.01 287.67
  Q 997.46 287.57 997.46 287.01
  L 997.46 282.73
  Q 997.46 282.12 998.06 282.03
  Q 1015.04 279.50 1031.40 274.26
  Q 1032.01 274.07 1032.01 274.71
  L 1032.01 289.00
  Q 1032.01 289.82 1032.68 289.35
  Z"
/>
<path fill="#0033a0" d="
  M 1291.43 296.41
  Q 1291.50 296.41 1291.65 296.32
  Q 1291.75 296.26 1291.81 296.14
  C 1296.46 287.77 1305.90 273.92 1317.03 274.60
  C 1328.06 275.28 1332.78 287.65 1325.59 295.85
  C 1323.09 298.71 1318.03 302.12 1314.24 299.22
  C 1309.90 295.90 1304.59 293.09 1299.55 296.55
  Q 1294.85 299.77 1292.27 305.66
  Q 1291.11 308.30 1291.11 312.06
  Q 1291.14 330.53 1291.17 349.00
  C 1291.18 354.68 1291.68 359.69 1298.51 360.82
  Q 1304.31 361.78 1307.95 361.94
  Q 1308.24 361.95 1308.24 362.24
  L 1308.23 367.99
  Q 1308.23 368.21 1308.01 368.21
  L 1254.72 368.21
  Q 1254.48 368.21 1254.48 367.97
  L 1254.46 362.24
  Q 1254.46 361.92 1254.78 361.90
  C 1264.31 361.36 1268.11 359.38 1268.15 349.25
  Q 1268.24 325.37 1268.24 301.50
  C 1268.24 291.46 1266.55 289.53 1256.84 287.64
  Q 1256.30 287.53 1256.30 286.98
  L 1256.31 282.70
  Q 1256.31 282.13 1256.87 282.06
  Q 1274.21 279.90 1290.70 274.19
  A 0.32 0.32 0.0 0 1 1291.13 274.49
  L 1291.12 296.12
  A 0.32 0.29 1.0 0 0 1291.43 296.41
  Z"
/>
<path fill="#0033a0" d="
  M 1373.82 295.96
  C 1378.23 287.85 1387.52 274.45 1398.24 274.56
  C 1413.92 274.71 1415.06 295.79 1400.73 300.14
  C 1396.78 301.34 1394.42 297.32 1390.98 295.95
  C 1382.71 292.68 1377.41 299.15 1374.14 305.73
  Q 1373.02 307.98 1373.02 311.04
  Q 1372.97 330.76 1373.08 350.50
  C 1373.11 355.09 1374.01 359.10 1378.84 360.39
  Q 1384.30 361.85 1389.72 361.87
  A 0.35 0.35 0.0 0 1 1390.06 362.22
  L 1390.07 367.82
  Q 1390.07 368.21 1389.68 368.21
  L 1336.53 368.21
  A 0.23 0.23 0.0 0 1 1336.30 367.98
  L 1336.29 362.25
  Q 1336.29 361.94 1336.60 361.92
  C 1344.30 361.42 1349.69 360.43 1349.78 351.25
  Q 1350.14 316.90 1350.03 298.75
  C 1349.98 290.11 1346.03 289.07 1338.75 287.65
  Q 1338.21 287.54 1338.21 287.00
  L 1338.22 282.70
  Q 1338.22 282.12 1338.79 282.05
  C 1350.82 280.49 1360.67 278.07 1372.39 274.29
  Q 1373.00 274.10 1373.00 274.73
  L 1373.00 295.76
  Q 1373.01 297.47 1373.82 295.96
  Z"
/>
<path fill="#0033a0" d="
  M 599.68 318.07
  C 599.58 330.48 604.51 343.64 615.39 349.93
  C 627.02 356.66 641.90 353.30 651.69 344.25
  A 0.45 0.45 0.0 0 1 652.36 344.32
  L 655.22 348.36
  Q 655.58 348.86 655.22 349.36
  C 645.73 362.77 630.28 372.45 613.30 370.26
  C 588.37 367.05 575.29 345.19 577.62 321.26
  Q 579.90 297.96 598.33 283.81
  C 614.88 271.11 636.04 270.52 649.70 288.05
  Q 657.50 298.05 656.33 309.26
  Q 655.87 313.78 650.50 314.26
  Q 625.36 316.51 600.14 317.60
  Q 599.69 317.62 599.68 318.07
  Z
  M 633.52 300.10
  C 631.89 282.64 614.15 274.71 604.93 293.17
  Q 601.50 300.03 600.74 307.72
  Q 600.69 308.22 601.19 308.22
  Q 615.61 308.30 630.01 307.76
  C 634.51 307.60 633.81 303.13 633.52 300.10
  Z"
/>
<path fill="#0033a0" d="
  M 985.69 337.72
  C 972.12 382.47 904.37 381.72 894.20 334.99
  C 891.18 321.12 894.16 305.83 902.41 294.31
  C 915.88 275.52 942.59 269.31 962.95 279.29
  C 984.69 289.95 992.48 315.33 985.69 337.72
  Z
  M 961.73 316.62
  C 960.84 304.30 955.88 284.05 940.71 282.30
  C 926.00 280.60 920.00 298.85 919.46 310.26
  Q 918.59 328.36 922.63 342.21
  C 925.92 353.49 934.88 367.01 948.86 362.02
  C 963.41 356.83 962.59 328.45 961.73 316.62
  Z"
/>
<path fill="#0033a0" d="
  M 1191.31 318.15
  C 1191.34 328.09 1194.44 338.45 1201.34 345.56
  C 1212.81 357.40 1231.33 355.13 1243.20 344.33
  Q 1243.69 343.88 1244.08 344.42
  L 1246.90 348.38
  Q 1247.19 348.78 1246.91 349.19
  C 1236.82 363.72 1220.11 373.41 1202.23 369.89
  C 1179.62 365.44 1167.61 345.21 1169.10 323.13
  Q 1171.11 293.08 1198.23 278.64
  C 1214.02 270.22 1232.42 274.84 1242.50 289.50
  Q 1248.96 298.89 1248.05 308.78
  C 1247.55 314.12 1242.97 314.27 1238.00 314.68
  Q 1214.96 316.60 1191.86 317.58
  Q 1191.31 317.61 1191.31 318.15
  Z
  M 1221.42 289.04
  C 1215.88 280.10 1204.79 280.99 1199.06 289.10
  Q 1193.37 297.15 1192.46 307.79
  Q 1192.42 308.25 1192.88 308.25
  Q 1205.88 308.30 1218.86 307.72
  C 1222.99 307.54 1225.57 307.94 1225.33 302.89
  Q 1224.93 294.71 1221.42 289.04
  Z"
/>
<path fill="#0033a0" d="
  M 1436.54 317.62
  A 0.14 0.14 0.0 0 0 1436.40 317.75
  C 1436.28 329.01 1440.28 341.02 1449.10 347.99
  C 1460.73 357.17 1477.57 354.16 1488.31 344.29
  A 0.55 0.54 51.0 0 1 1489.12 344.38
  L 1491.93 348.32
  Q 1492.24 348.76 1491.94 349.20
  C 1481.74 363.91 1465.16 373.35 1447.25 369.85
  C 1428.34 366.15 1416.40 351.21 1414.39 332.51
  C 1411.96 309.88 1422.78 289.54 1442.72 278.99
  C 1465.46 266.95 1491.58 280.85 1493.26 306.70
  Q 1493.70 313.47 1487.00 314.12
  Q 1461.78 316.57 1436.54 317.62
  Z
  M 1445.94 287.19
  C 1440.73 292.51 1438.21 300.52 1437.45 307.69
  Q 1437.40 308.21 1437.92 308.21
  Q 1452.09 308.30 1466.25 307.84
  Q 1470.59 307.70 1470.41 303.01
  C 1470.15 295.95 1468.02 288.48 1462.17 284.55
  C 1456.73 280.89 1450.39 282.66 1445.94 287.19
  Z"
/>
<path fill="#0033a0" d="
  M 1552.55 340.98
  Q 1561.79 317.39 1569.44 292.97
  C 1571.84 285.32 1564.60 283.82 1559.21 283.08
  A 0.34 0.34 0.0 0 1 1558.92 282.74
  L 1558.90 277.36
  A 0.37 0.37 0.0 0 1 1559.27 276.99
  L 1595.95 276.99
  Q 1596.40 276.99 1596.40 277.45
  L 1596.42 282.29
  Q 1596.42 282.88 1595.84 283.02
  C 1589.90 284.52 1585.67 285.30 1582.41 291.13
  Q 1578.03 298.97 1574.56 307.26
  C 1559.53 343.21 1543.84 378.03 1531.48 416.01
  Q 1530.52 418.94 1526.99 419.70
  C 1521.73 420.82 1515.94 417.73 1513.08 413.45
  C 1506.50 403.62 1517.66 400.30 1523.19 395.82
  C 1529.80 390.48 1535.42 381.46 1537.94 373.74
  Q 1539.51 368.95 1537.58 363.71
  C 1528.83 339.97 1520.15 316.04 1510.23 292.77
  C 1507.26 285.80 1502.42 284.50 1495.68 282.97
  Q 1495.27 282.88 1495.27 282.46
  L 1495.28 277.48
  Q 1495.28 276.99 1495.77 276.99
  L 1543.23 276.99
  A 0.24 0.23 -90.0 0 1 1543.46 277.23
  L 1543.47 282.74
  Q 1543.47 283.03 1543.17 283.08
  C 1536.84 284.04 1532.36 285.61 1535.10 293.31
  Q 1543.64 317.23 1552.00 340.97
  Q 1552.26 341.72 1552.55 340.98
  Z"
/>
</svg>
